<svg width="26" height="26" viewBox="0 0 26 26" fill="none" xmlns="http://www.w3.org/2000/svg">
<path fill-rule="evenodd" clip-rule="evenodd" d="M12.9242 19.5454C16.5391 19.5454 19.4696 16.6149 19.4696 13C19.4696 9.38503 16.5391 6.45453 12.9242 6.45453C9.30922 6.45453 6.37872 9.38503 6.37872 13C6.37872 16.6149 9.30922 19.5454 12.9242 19.5454ZM12.9242 17.3636C15.3341 17.3636 17.2878 15.4099 17.2878 13C17.2878 10.59 15.3341 8.63635 12.9242 8.63635C10.5142 8.63635 8.56054 10.59 8.56054 13C8.56054 15.4099 10.5142 17.3636 12.9242 17.3636Z" fill="#D6D6D6" stroke="#D6D6D6"/>
<path d="M19.4696 5.36365C18.8671 5.36365 18.3787 5.85207 18.3787 6.45456C18.3787 7.05704 18.8671 7.54547 19.4696 7.54547C20.0721 7.54547 20.5605 7.05704 20.5605 6.45456C20.5605 5.85207 20.0721 5.36365 19.4696 5.36365Z" fill="#D6D6D6" stroke="#D6D6D6"/>
<path fill-rule="evenodd" clip-rule="evenodd" d="M1.63761 4.57388C0.924194 5.97403 0.924194 7.80694 0.924194 11.4727V14.5273C0.924194 18.1931 0.924194 20.026 1.63761 21.4261C2.26514 22.6577 3.26646 23.6591 4.49808 24.2865C5.89823 25 7.73113 25 11.3969 25H14.4515C18.1172 25 19.9502 25 21.3503 24.2865C22.5819 23.6591 23.5833 22.6577 24.2107 21.4261C24.9242 20.026 24.9242 18.1931 24.9242 14.5273V11.4727C24.9242 7.80694 24.9242 5.97403 24.2107 4.57388C23.5833 3.34227 22.5819 2.34095 21.3503 1.71341C19.9502 1 18.1172 1 14.4515 1H11.3969C7.73113 1 5.89823 1 4.49808 1.71341C3.26646 2.34095 2.26514 3.34227 1.63761 4.57388ZM14.4515 3.18182H11.3969C9.52802 3.18182 8.25756 3.18352 7.27555 3.26375C6.319 3.3419 5.82984 3.48355 5.4886 3.65742C4.66753 4.07579 3.99998 4.74333 3.58162 5.56441C3.40775 5.90564 3.26609 6.39481 3.18794 7.35136C3.10771 8.33336 3.10601 9.60383 3.10601 11.4727V14.5273C3.10601 16.3962 3.10771 17.6666 3.18794 18.6486C3.26609 19.6052 3.40775 20.0944 3.58162 20.4356C3.99998 21.2567 4.66753 21.9242 5.4886 22.3425C5.82984 22.5164 6.319 22.6581 7.27555 22.7363C8.25756 22.8164 9.52802 22.8182 11.3969 22.8182H14.4515C16.3204 22.8182 17.5908 22.8164 18.5728 22.7363C19.5294 22.6581 20.0186 22.5164 20.3598 22.3425C21.1808 21.9242 21.8484 21.2567 22.2667 20.4356C22.4406 20.0944 22.5823 19.6052 22.6604 18.6486C22.7406 17.6666 22.7424 16.3962 22.7424 14.5273V11.4727C22.7424 9.60383 22.7406 8.33336 22.6604 7.35136C22.5823 6.39481 22.4406 5.90564 22.2667 5.56441C21.8484 4.74333 21.1808 4.07579 20.3598 3.65742C20.0186 3.48355 19.5294 3.3419 18.5728 3.26375C17.5908 3.18352 16.3204 3.18182 14.4515 3.18182Z" fill="#D6D6D6" stroke="#D6D6D6"/>
</svg>
