<svg width="23" height="23" viewBox="0 0 23 23" fill="none" xmlns="http://www.w3.org/2000/svg">
<path d="M5.9382 7.00613C6.05247 6.1024 7.22697 4.87414 8.15908 5.01043L8.15759 5.00894C9.06471 5.18132 9.78279 6.74261 10.1877 7.44465C10.4746 7.95402 10.2883 8.4701 10.0207 8.68787C9.6597 8.97883 9.09519 9.3803 9.21363 9.7834C9.4242 10.5 11.9242 13 13.1538 13.7107C13.6192 13.9797 13.9567 13.2702 14.2449 12.9067C14.4543 12.6271 14.9708 12.46 15.479 12.736C16.238 13.178 16.953 13.6917 17.6142 14.27C17.9444 14.546 18.0219 14.9539 17.7931 15.385C17.3901 16.1443 16.2245 17.1456 15.3784 16.9421C13.9006 16.5868 7.9242 14.27 6.00453 7.55801C5.89657 7.24048 5.92375 7.12044 5.9382 7.00613Z" fill="#D9D9D9"/>
<path fill-rule="evenodd" clip-rule="evenodd" d="M11.9242 22C10.7006 22 10.0236 21.8687 8.92419 21.5L6.81862 22.5528C5.48881 23.2177 3.92419 22.2507 3.92419 20.7639V18.5C1.77074 16.492 0.924194 14.1767 0.924194 11C0.924194 4.92487 5.84906 0 11.9242 0C17.9993 0 22.9242 4.92487 22.9242 11C22.9242 17.0751 17.9993 22 11.9242 22ZM5.92419 17.6303L5.28814 17.0372C3.61506 15.4772 2.92419 13.7331 2.92419 11C2.92419 6.02944 6.95363 2 11.9242 2C16.8948 2 20.9242 6.02944 20.9242 11C20.9242 15.9706 16.8948 20 11.9242 20C10.9385 20 10.4762 19.911 9.56014 19.6038L8.77266 19.3397L5.92419 20.7639V17.6303Z" fill="#D9D9D9"/>
</svg>
